<svg width="64" height="64" viewBox="0 0 64 64" fill="none" xmlns="http://www.w3.org/2000/svg">
<path d="M29.6003 58.6666H16.0003C14.5858 58.6666 13.2293 58.1047 12.2291 57.1045C11.2289 56.1043 10.667 54.7478 10.667 53.3333V10.6666C10.667 9.25212 11.2289 7.89556 12.2291 6.89537C13.2293 5.89517 14.5858 5.33327 16.0003 5.33327H37.3337C38.1787 5.3312 39.0158 5.4965 39.7966 5.81963C40.5774 6.14276 41.2865 6.61733 41.883 7.21594L51.4537 16.7839C52.0518 17.3806 52.5259 18.0898 52.8485 18.8706C53.1712 19.6514 53.3361 20.4884 53.3337 21.3333V29.9999" stroke="#6B6D7F" stroke-width="3" stroke-linecap="round" stroke-linejoin="round"/>
<path d="M37.333 5.33325V18.6666C37.333 19.3738 37.614 20.0521 38.1141 20.5522C38.6142 21.0523 39.2924 21.3333 39.9997 21.3333H53.333" stroke="#6B6D7F" stroke-width="3" stroke-linecap="round" stroke-linejoin="round"/>
<path d="M56.0003 58.6666L48.3203 50.9866" stroke="#6B6D7F" stroke-width="3" stroke-linecap="round" stroke-linejoin="round"/>
<path d="M42.667 53.3333C47.0853 53.3333 50.667 49.7515 50.667 45.3333C50.667 40.915 47.0853 37.3333 42.667 37.3333C38.2487 37.3333 34.667 40.915 34.667 45.3333C34.667 49.7515 38.2487 53.3333 42.667 53.3333Z" stroke="#6B6D7F" stroke-width="3" stroke-linecap="round" stroke-linejoin="round"/>
</svg>
