<svg width="24" height="24" viewBox="0 0 24 24" fill="none" xmlns="http://www.w3.org/2000/svg">
<path fill-rule="evenodd" clip-rule="evenodd" d="M6.70708 5.29341C6.51848 5.11125 6.26588 5.01045 6.00368 5.01273C5.74148 5.01501 5.49067 5.12018 5.30526 5.30559C5.11985 5.491 5.01469 5.74181 5.01241 6.00401C5.01013 6.2662 5.11092 6.5188 5.29308 6.70741L10.5861 12.0004L5.29308 17.2934C5.19757 17.3857 5.12139 17.496 5.06898 17.618C5.01657 17.74 4.98898 17.8712 4.98783 18.004C4.98668 18.1368 5.01198 18.2685 5.06226 18.3914C5.11254 18.5143 5.18679 18.6259 5.28069 18.7198C5.37458 18.8137 5.48623 18.8879 5.60913 18.9382C5.73202 18.9885 5.8637 19.0138 5.99648 19.0127C6.12926 19.0115 6.26048 18.9839 6.38249 18.9315C6.50449 18.8791 6.61483 18.8029 6.70708 18.7074L12.0001 13.4144L17.2931 18.7074C17.4817 18.8896 17.7343 18.9904 17.9965 18.9881C18.2587 18.9858 18.5095 18.8806 18.6949 18.6952C18.8803 18.5098 18.9855 18.259 18.9878 17.9968C18.99 17.7346 18.8892 17.482 18.7071 17.2934L13.4141 12.0004L18.7071 6.70741C18.8892 6.5188 18.99 6.2662 18.9878 6.00401C18.9855 5.74181 18.8803 5.491 18.6949 5.30559C18.5095 5.12018 18.2587 5.01501 17.9965 5.01273C17.7343 5.01045 17.4817 5.11125 17.2931 5.29341L12.0001 10.5864L6.70708 5.29341Z" fill="#A4A5B1"/>
</svg>
